<?xml version="1.0" encoding="UTF-8"?>
<svg width="1400pt" height="1400pt" version="1.1" viewBox="0 0 700 700" xmlns="http://www.w3.org/2000/svg">
 <g>
  <path d="m584.66 500.29 0.125 35-472.78 1.7852-0.14062-35z"/>
  <path d="m432.29 71.961c13.176 0.82031 9.4492-2.6445 13.809 6.4727 2.0273 23.836 2.0273 23.836 8.1016 95.324 2.1016 24.797 1.3281 15.766 2.293 27.07 1.1016-6.4219 2.2031-12.859 3.3086-19.281 1.6797-9.8555 15.887-9.6445 17.27 0.24219 2.207 15.574 4.4102 31.152 6.5977 46.727 4.6367 32.812 2.9062 20.543 5.1992 36.801 2.082-7.2422 4.1484-14.473 6.2305-21.715 2.6055-9.1719 15.941-8.1211 17.078 1.3477 2.0312 16.59 2.0312 16.59 8.1016 66.395l0.47266 3.7969c1.7148-11.008 3.4141-22.016 5.1445-33.023l0.4375-1.7305c3.0469-8.0859 3.0469-8.0859 12.148-32.34 9.1172-24.273 9.1172-24.273 12.145-32.359l16.395 6.1602c-3.043 8.1016-6.0898 16.203-9.1328 24.324-4.9531 13.16-9.8867 26.34-14.84 39.516-2.4336 15.594-4.8672 31.184-7.2812 46.777-5.5625 35.754-5.5625 35.754-7.418 47.672-1.5781 10.043-16.117 9.7969-17.344-0.28125-2.0312-16.609-2.0312-16.609-8.0859-66.395-2.3086-18.832-1.3477-10.992-2.8867-23.555-1.8906 6.5977-3.7812 13.195-5.6523 19.793-2.6094 9.082-15.766 8.1719-17.078-1.1914-2.207-15.523-2.207-15.523-8.7695-62.125l-0.94531-6.6172c-1.7852 10.52-3.5859 21.035-5.3906 31.555-1.7305 10.113-16.465 9.5039-17.34-0.73437-2.0312-23.836-2.0312-23.836-8.0859-95.34-2.3789-27.949-1.3477-15.77-3.1172-36.559-3.9883 18.797-7.9961 37.574-12.004 56.367-1.9258 9.0664-14.785 9.293-17.043 0.29687-2.3477-9.3789-4.6914-18.758-7.0352-28.121-3.3789 15.715-1.5078 7-5.6016 26.129-10.113 47.25-10.113 47.25-13.492 63-2.0117 9.3945-15.539 9.1328-17.184-0.35156-1.1758-6.7734-2.3477-13.547-3.5195-20.336-3.2891 15.086-1.3477 6.1797-5.8281 26.758-11.48 52.922-11.48 52.922-15.312 70.543-1.9414 8.9609-14.594 9.293-16.992 0.4375-2.2383-8.2422-4.4805-16.484-6.7188-24.727l-1.9062 8.9414c-7.0898 33.199-7.0898 33.199-9.4531 44.258-1.9062 8.9766-14.574 9.3281-16.992 0.48828-3.2031-11.707-3.2031-11.707-12.828-46.812-4.2148-15.418-2.1172-7.7344-6.2969-23.027l-0.19531 0.41797c-7.5742 17.238-7.5742 17.238-10.113 22.977-3.4492 7.8086-14.895 6.582-16.59-1.7852-1.5742-7.8047-3.168-15.609-4.7617-23.414-2.832 14.508-1.1367 5.8633-5.0547 25.902-10.117 51.711-10.117 51.711-13.492 68.949-1.875 9.5195-15.543 9.3789-17.203-0.17578-1.7695-10.133-3.5352-20.246-5.2852-30.379-2.1719 8.207-0.63281 2.3633-4.6211 17.48-11.148 42.141-11.148 42.141-14.859 56.195-2.2383 8.5039-14.242 8.7305-16.816 0.3125-1.7148-5.6172-0.71484-2.3086-3.0273-9.9219-2.3281 12.617-4.6562 25.254-6.9805 37.887l-17.223-3.168c1.6992-9.168 3.3789-18.34 5.0781-27.527 2.7969-15.223 5.6172-30.449 8.4141-45.672 1.6641-9.0156 14.301-9.7305 16.977-0.96484 1.5039 4.9336 3.0117 9.8867 4.5312 14.84 4.5156-17.148 2.1875-8.3477 6.9844-26.441 11.129-42.141 11.129-42.141 14.84-56.176 2.3984-9.082 15.469-8.5234 17.078 0.73437 1.3477 7.7188 2.6797 15.438 4.0273 23.152 2.168-11.078 0.69922-3.5859 4.4102-22.488 10.113-51.711 10.113-51.711 13.492-68.949 1.8359-9.3789 15.242-9.4297 17.148-0.050781 1.6992 8.293 1.6992 8.293 6.7539 33.195l1.2617 6.2148c3.0469-6.9297 6.0898-13.844 9.1367-20.773 3.3242-7.543 14.277-6.7188 16.449 1.2266 3.2031 11.707 3.2031 11.707 12.828 46.812 3.2188 11.777 2.1172 7.7344 3.3242 12.145l1.9414-9.1172c7.0703-33.18 7.0703-33.18 9.4336-44.258 1.9258-8.9766 14.594-9.3281 17.008-0.45703 2.2578 8.332 4.5352 16.66 6.793 25.008l3.918-18.043c6.3711-29.348 12.742-58.695 19.129-88.043 2.0273-9.3945 15.523-9.1172 17.168 0.35156 1.1523 6.668 2.3086 13.336 3.4648 20.02 1.8008-8.4336 0.47266-2.1523 4.043-18.848 10.113-47.25 10.113-47.25 13.492-62.98 1.9414-9.0664 14.785-9.293 17.043-0.29688 2.3477 9.3438 4.6719 18.688 7.0195 28.031 2.2578-10.637 0.83984-3.9531 4.2695-20.07 9.1172-42.77 9.1172-42.77 12.145-57.031z"/>
 </g>
</svg>
